/* XPM */
static char *cb1qz_lmvcs[] = {
/* columns rows colors chars-per-pixel */
"64 64 27 1 ",
"  c #8E7E65",
". c #917D65",
"X c #96856C",
"o c #9A866E",
"O c #99886F",
"+ c #9D8771",
"@ c #9D8C74",
"# c #9F8F78",
"$ c #9F9076",
"% c #9F9079",
"& c #A18E76",
"* c #A28E79",
"= c #A09077",
"- c #A4947C",
"; c #A8957E",
": c #A6987E",
"> c #A8987F",
", c #A69780",
"< c #A99681",
"1 c #A79881",
"2 c #AA9A83",
"3 c #AE9F88",
"4 c #B19E89",
"5 c #AFA089",
"6 c #B0A087",
"7 c #B1A28B",
"8 c #B6A790",
/* pixels */
"o&&oO=&=>:===&==&@&@==;;>===+>>;;&;;&-2<,*,*<--*4@*,*-<<<<*-,*<2",
"oo.&&OOO=&=o&:=&===;;;;;;;;=>>=;*>2;>2;-<-<<*<<<<*,**<<,<-<*-*<<",
"&+&&OoO&o=&=;=&=;=@;+=;=;;;;>>&&>>;;<**;<,,22<*<***,<3<,;2*<<<<*",
"&&o+o&=======:&>=@=-;;====;====:;===-****,--<,,-<,*,2**2--,<;**<",
"+oXXXo====>=:=:==:>==-==>>;;:-:-=:1*-,<<--,-,-,,<,,<**,,*2,,<,**",
"XXXoXo=:>>::&=::>>>::>>>>=4>:-:-:::,2<:1#,3,--,,2<2--,7,2,<,*<;2",
"ooo&X::=::=:=>:&@O@@=:@:>>>>;@-:23:<22,,-,,-#2,22-#,222-,,---&;;",
"&oo;::o====>:=oo=:>::-::>==>=->->>-2,#,,--,-,,-1--,,,--,,,,:,<;<",
"&oO:=OO:>=====>:>:-$=:=-:-@==:-:2:::-,%-#%1%,2,#%1,11,,%,1-2111-",
"=&:=O==:&o====>===:-@=>>===::>>->=2,###-,2123-@311,1,,,,32,12,*-",
"&===:OXOo:>=&:==O-:=$:>=>=:>::@=:==,X@111211:#32,,11,%,,2,%%#-13",
"=O==:===:=::=:=:=>=:=:>=:-:::-;>=*:##372#*,-,24-1,1,,,,,-#2,,2<,",
"O==OOO==O=:===:>=--=@=>-@=>:;=>::2:-23,*,,#-1,,,111,,,,%@,%,-,,*",
":O==:O===>===::>=>:==>:@>:===::>>::2,---1,@-,-2,,21%,1%@,12,-,-1",
"&:===O===:==:::o@>=@>@X@:-@=-=:;--:2:-,2,--<2,,,1,,,1,@,#31%2,,,",
"=oo:=:==O&=:=>:&>=@::@>>:=:=:>::>>2*-,--,,,3,*,2111,1,1,,3--,,,,",
":o=O&O&O==:=$==::>::;:>>::>>7>;:::223,#,3-22,,,-1,%1,%11,5111,11",
"=&===oO==>$:=$=:==@;O=:=>:>:>@@@@<:,,2322,-,,,-,1,1,%11,,,#,,%11",
"oo==:=:O:OO==$=:=$==$;::;@-:=:>-=<,-:-#-,+,--,*,1%#11,,,%11,%,11",
"&:==:=:==O=>>$:>=:;===:==::@=6:=>22,,@#2@--@-,,,,115,,%@1111,,,,",
":===Oo====::=O=o=::>@=;=::;:>>-:26>2<,3,,5123,-2,111%%%,11121,,1",
"o&==:==:=::O=:OX=;=>=::::@-=-::>2-:--2<-2323--,-11#%1%%12511,,,%",
"=:====:==:$O>:=>>::>:>>:=-=-:>:>-22>2,,2132,#22,111,,,,51,211%%1",
"6:=::=:=>O$:==:>::>>>>:@=::;---:->2:212-322*2--211,55155%,%%21:1",
"o&o&=O===&::=>:=>;@=3:==:->:$2>-2---=22251--1%:2%%%51%2275155111",
"&&&&&=:==:===>=:>::>*@:::@o +>@2>>3:<:,,11121-33,%15%,258111%111",
"=&oo=&:=:===>&=:O=::::&:=@@$23:<=6-:----1%12%,:,,52111221%1%%11,",
"&=:==o=======>>=>>:=-:=::>237,:2>>=2,3<,155%-,%,21,122%,%12111-%",
"&&o;&=>>::::=::>=::>>>:<:2,,,,--2<:22,-211,,55152111%1,2,5111111",
"oo:o=:>>:====O==@:>>=:=:,--2-,,,,2334-23%,11511115123521%2%,2211",
"&==:=&=o=$=:===>:::@-=---:--,<2,,333,2221111,%1111,121%%1,,,,,,-",
":o&&=:oo:::OO::=@--;::>>2<2,-2,-23,,-<2-,11,%1,,,,1%1111%1511,,1",
";X&-:-+:=@=O::>::=-=-<#,22=-,1,2:-2222,:,,,,1%%%1111222125111111",
"o&>2$$:-->=-=::=-=-::,,,3##,11,2,<--3,2,%5,,%,1,51%5%%11%11%%125",
"X&&O :-:>=@-2>::&--2-:#--@2,2%153,-3,@,,1,#,51%%5%%1%1%12121351%",
"&:=O----@@>-&-2$:>=:--#,,,21-,1%--,3#23<11115511551,221111,121%-",
"&&=&-$$@@=$X>-=#:::@---2,*,,,%,,,%1%-32211,%5%@,7512121%2%,32%,3",
"&=o&=@@O@-=::%---*,,-2,,-,2-,,%1153,3322111511151,112212,,,1%111",
"O=&-$@==O-->:+=7--:,,,#-22,1,,1115-,3%12,15,,,11%,%12%%%2%,,,311",
"&=&&$@:=---O=--2*:,*,*2,7:,1,31231%1-@11,,,%,1,,5%1%1112,1211@@,",
"=O&==-==:--->--@%##-,,,,,#,-,-11#331222111,,5,,%,,,21%,1%,111111",
"@&==;&-=--=-=:>:2,,,##-<#-#,,-11111,%12212%,21,1,1181%,1111111%,",
"==&@&@-O$@=---=--,2-,23:,--,@,,1%2%,,1135%@,5111,111,111,%,,12%5",
"=@=;=@@=@@->=::>21@-,2*,,,22,,,%1%11,%15,%,1111,11111,,1@,X@1%%5",
"--@==%::-@$>:2,,,-,-2,-,,27--,-#%%,1%-51%,,1,%1,1111%%112%%32%23",
"=@&#=-=@=@-=#=*,,12,2--2:,2*,,-23,%,,12%,,511511111,15115,25212,",
"&@=@@@=X@>2:=:##-#-,-@-,,,,-2,,25-2553111555511111112,1,1,,,21%1",
"=&+=@#@O-=@@:,##*,1###-##21,1,,2%112,,1,,11%%%111111,1,@51,,,,11",
"&&o;=-&=-@=$@$$-2,@-1,23,2--,,,-111,,,31,11131111111,1,11111,111",
";&&-O==>->$@=--2,##,2,32,,#242223,,1,,,113311,1,51,11%11111%,,11",
"&;&&:==-=:X-=$--,,,1#@-,,22,--3<,,31,131131111,11%11,11,1111%,11",
"&&&-=O-@@OO>-$-%,#*%##2,*,#-,,,,111,131,,31113,1,111,11111%1111,",
";&&oo====--3=$:,,,,,<<,,--:2-*2,,,,1,#1,13,181,,,11%1111,,111,,1",
"&=&;-=-@O:-=@::-,##1,,+#,,-#-,-21111,11,11111%3,11111,%11111,%11",
"&&&;-->X=-@**##:##,<,,,,,#,422<,,11,3311,1,1,,1%111111,1,,,,%1,,",
"X*;&==&O>=--=--@#2<,,#,#,,37,,2*1,,,1111,,,313,11111,%11,,11%1,,",
"+;&&***;-===-==:<<,,###,,,,+,<,<1,<1<,<,<3<3<<11,%11,<<<,,1,,,O1",
"&;*;**;*@&&@==-:<<+,.,,,,<,,,,<,,11<381,3<3<11,1,3111<<<111%,%11",
"&*&;&;;*@O@=----.**.<3<,, ,<,,,#,,11,,,,%33<<131,1<11,#<1,,11,11",
"**+&&&.;-@-:##@X<***<<,,,,,,,,,<,1,1,,,1<<#<1113%#%,1,<<,,%%,,,1",
";&;;<**4*&*;*&@@**<<<<.<,,,.<<#<,,<<13<,<<<3<<<##<33<<%<3<<<,,,,",
";+;**;4.+*;&@&+-;**<<<<<,,,,<**<<<<#3,#<<<<3<<*<,3<%<<%<3<<<,,,,",
";.*&.;&&*+.;&&*;<<**4*4*<<<*<<<<,,<<<<<3<<3<%<<<<<<<3%<<<<<<#<,,",
".&*&&&&;;.**&+*<<<.<<***<.<<*<<**+,<<#,<<<<<<<<3<3<%<<%%<<<<#,,<"
};
